<mxfile host="65bd71144e">
    <diagram id="jKxad6mJ0QZdow8ntNLw" name="第 1 页">
        <mxGraphModel dx="567" dy="433" grid="1" gridSize="10" guides="1" tooltips="1" connect="1" arrows="1" fold="1" page="1" pageScale="1" pageWidth="827" pageHeight="1169" math="0" shadow="0">
            <root>
                <mxCell id="0"/>
                <mxCell id="1" parent="0"/>
                <mxCell id="2" value="以代码为例&lt;br&gt;var&amp;nbsp; message = “hello&amp;nbsp; outer”&lt;br&gt;&lt;br&gt;function&amp;nbsp; foo(){&lt;br&gt;&amp;nbsp; &amp;nbsp; console.log(message)&lt;br&gt;}&lt;br&gt;&lt;br&gt;function bar(){&lt;br&gt;&amp;nbsp; &amp;nbsp; var message = &quot;hello inner&quot;&lt;br&gt;&amp;nbsp; &amp;nbsp; &amp;nbsp;foo()&lt;br&gt;}&lt;br&gt;&lt;br&gt;bar()" style="whiteSpace=wrap;html=1;align=left;" parent="1" vertex="1">
                    <mxGeometry x="40" y="40" width="180" height="220" as="geometry"/>
                </mxCell>
                <mxCell id="3" value="" style="whiteSpace=wrap;html=1;" parent="1" vertex="1">
                    <mxGeometry x="280" y="40" width="200" height="500" as="geometry"/>
                </mxCell>
                <mxCell id="4" value="执行上下文栈" style="text;html=1;align=center;verticalAlign=middle;resizable=0;points=[];autosize=1;strokeColor=none;fillColor=none;" parent="1" vertex="1">
                    <mxGeometry x="310" y="10" width="100" height="30" as="geometry"/>
                </mxCell>
                <mxCell id="5" value="" style="whiteSpace=wrap;html=1;" parent="1" vertex="1">
                    <mxGeometry x="300" y="440" width="160" height="90" as="geometry"/>
                </mxCell>
                <mxCell id="6" value="全局执行上文栈" style="text;html=1;align=center;verticalAlign=middle;resizable=0;points=[];autosize=1;strokeColor=none;fillColor=none;" parent="1" vertex="1">
                    <mxGeometry x="325" y="410" width="110" height="30" as="geometry"/>
                </mxCell>
                <mxCell id="7" value="vo :&amp;nbsp; 指向全局Go" style="rounded=1;whiteSpace=wrap;html=1;arcSize=0;" parent="1" vertex="1">
                    <mxGeometry x="320" y="450" width="120" height="30" as="geometry"/>
                </mxCell>
                <mxCell id="8" value="执行体" style="rounded=1;whiteSpace=wrap;html=1;" parent="1" vertex="1">
                    <mxGeometry x="320" y="490" width="120" height="30" as="geometry"/>
                </mxCell>
                <mxCell id="18" style="edgeStyle=none;html=1;exitX=0.5;exitY=0;exitDx=0;exitDy=0;" parent="1" source="16" target="17" edge="1">
                    <mxGeometry relative="1" as="geometry"/>
                </mxCell>
                <mxCell id="16" value="&lt;div style=&quot;text-align: justify;&quot;&gt;&lt;span style=&quot;background-color: initial;&quot;&gt;{&lt;/span&gt;&lt;/div&gt;&lt;div style=&quot;text-align: justify;&quot;&gt;&amp;nbsp; &amp;nbsp; &amp;nbsp;message： undefined&lt;/div&gt;&lt;div style=&quot;text-align: justify;&quot;&gt;&amp;nbsp; &amp;nbsp; &amp;nbsp;foo: 0xa00&lt;/div&gt;&lt;div style=&quot;text-align: justify;&quot;&gt;&amp;nbsp; &amp;nbsp; &amp;nbsp;bar: 0xb00&lt;/div&gt;&lt;div style=&quot;text-align: justify;&quot;&gt;&lt;span style=&quot;background-color: initial;&quot;&gt;}&lt;/span&gt;&lt;/div&gt;" style="whiteSpace=wrap;html=1;" parent="1" vertex="1">
                    <mxGeometry x="1090" y="50" width="170" height="70" as="geometry"/>
                </mxCell>
                <mxCell id="17" value="Go 对象" style="text;html=1;align=center;verticalAlign=middle;resizable=0;points=[];autosize=1;strokeColor=none;fillColor=none;" parent="1" vertex="1">
                    <mxGeometry x="1130" y="20" width="70" height="30" as="geometry"/>
                </mxCell>
                <mxCell id="20" value="parent scope&amp;nbsp; + 自己的作用域&lt;br&gt;&lt;br&gt;代码块儿" style="whiteSpace=wrap;html=1;" parent="1" vertex="1">
                    <mxGeometry x="990" y="240" width="180" height="80" as="geometry"/>
                </mxCell>
                <mxCell id="21" value="parent scope&amp;nbsp; + 自己的作用域&lt;br&gt;&lt;br&gt;代码块儿" style="whiteSpace=wrap;html=1;" parent="1" vertex="1">
                    <mxGeometry x="1200" y="240" width="159" height="80" as="geometry"/>
                </mxCell>
                <mxCell id="24" value="" style="edgeStyle=none;html=1;entryX=0.412;entryY=0.5;entryDx=0;entryDy=0;entryPerimeter=0;strokeColor=#FF3333;" parent="1" source="22" target="16" edge="1">
                    <mxGeometry relative="1" as="geometry"/>
                </mxCell>
                <mxCell id="28" value="" style="edgeStyle=none;html=1;" parent="1" source="22" target="20" edge="1">
                    <mxGeometry relative="1" as="geometry"/>
                </mxCell>
                <mxCell id="22" value="0xa00" style="text;html=1;align=center;verticalAlign=middle;resizable=0;points=[];autosize=1;strokeColor=none;fillColor=none;" parent="1" vertex="1">
                    <mxGeometry x="1050" y="210" width="60" height="30" as="geometry"/>
                </mxCell>
                <mxCell id="26" value="" style="edgeStyle=none;html=1;entryX=0.471;entryY=0.714;entryDx=0;entryDy=0;entryPerimeter=0;strokeColor=#FF3333;" parent="1" source="23" target="16" edge="1">
                    <mxGeometry relative="1" as="geometry">
                        <mxPoint x="1120" y="200" as="targetPoint"/>
                    </mxGeometry>
                </mxCell>
                <mxCell id="23" value="0xb00" style="text;html=1;align=center;verticalAlign=middle;resizable=0;points=[];autosize=1;strokeColor=none;fillColor=none;" parent="1" vertex="1">
                    <mxGeometry x="1230" y="210" width="60" height="30" as="geometry"/>
                </mxCell>
                <mxCell id="27" value="" style="edgeStyle=none;orthogonalLoop=1;jettySize=auto;html=1;strokeColor=#00CC00;exitX=1;exitY=0.5;exitDx=0;exitDy=0;entryX=0;entryY=0.5;entryDx=0;entryDy=0;" parent="1" source="7" target="16" edge="1">
                    <mxGeometry width="100" relative="1" as="geometry">
                        <mxPoint x="470" y="440" as="sourcePoint"/>
                        <mxPoint x="570" y="440" as="targetPoint"/>
                        <Array as="points"/>
                    </mxGeometry>
                </mxCell>
                <mxCell id="29" value="&lt;span style=&quot;color: rgba(0, 0, 0, 0); font-family: monospace; font-size: 0px; text-align: start;&quot;&gt;%3CmxGraphModel%3E%3Croot%3E%3CmxCell%20id%3D%220%22%2F%3E%3CmxCell%20id%3D%221%22%20parent%3D%220%22%2F%3E%3CmxCell%20id%3D%222%22%20value%3D%22%22%20style%3D%22whiteSpace%3Dwrap%3Bhtml%3D1%3B%22%20vertex%3D%221%22%20parent%3D%221%22%3E%3CmxGeometry%20x%3D%22317.5%22%20y%3D%22300%22%20width%3D%22135%22%20height%3D%2230%22%20as%3D%22geometry%22%2F%3E%3C%2FmxCell%3E%3C%2Froot%3E%3C%2FmxGraphModel%3E&lt;/span&gt;" style="whiteSpace=wrap;html=1;" parent="1" vertex="1">
                    <mxGeometry x="305" y="290" width="160" height="110" as="geometry"/>
                </mxCell>
                <mxCell id="30" value="bar 函数执行上下文栈" style="text;html=1;align=center;verticalAlign=middle;resizable=0;points=[];autosize=1;strokeColor=none;fillColor=none;" parent="1" vertex="1">
                    <mxGeometry x="315" y="260" width="140" height="30" as="geometry"/>
                </mxCell>
                <mxCell id="32" value="VO : AO" style="whiteSpace=wrap;html=1;" parent="1" vertex="1">
                    <mxGeometry x="317.5" y="300" width="135" height="30" as="geometry"/>
                </mxCell>
                <mxCell id="35" value="var message = &quot;undefined&lt;br&gt;foo()" style="whiteSpace=wrap;html=1;" parent="1" vertex="1">
                    <mxGeometry x="317.5" y="350" width="132.5" height="40" as="geometry"/>
                </mxCell>
                <mxCell id="36" value="massage ： undefined" style="whiteSpace=wrap;html=1;" parent="1" vertex="1">
                    <mxGeometry x="740" y="40" width="160" height="60" as="geometry"/>
                </mxCell>
                <mxCell id="37" value="bar 的Ao 对象" style="text;html=1;align=center;verticalAlign=middle;resizable=0;points=[];autosize=1;strokeColor=none;fillColor=none;" parent="1" vertex="1">
                    <mxGeometry x="750" y="5" width="100" height="30" as="geometry"/>
                </mxCell>
                <mxCell id="38" value="" style="edgeStyle=none;orthogonalLoop=1;jettySize=auto;html=1;exitX=1;exitY=0.5;exitDx=0;exitDy=0;entryX=0;entryY=0.5;entryDx=0;entryDy=0;" parent="1" source="32" target="36" edge="1">
                    <mxGeometry width="100" relative="1" as="geometry">
                        <mxPoint x="510" y="210" as="sourcePoint"/>
                        <mxPoint x="610" y="210" as="targetPoint"/>
                        <Array as="points"/>
                    </mxGeometry>
                </mxCell>
                <mxCell id="39" value="" style="whiteSpace=wrap;html=1;" parent="1" vertex="1">
                    <mxGeometry x="290" y="110" width="180" height="120" as="geometry"/>
                </mxCell>
                <mxCell id="41" value="foo 的函数执行上下文" style="text;html=1;align=center;verticalAlign=middle;resizable=0;points=[];autosize=1;strokeColor=none;fillColor=none;" parent="1" vertex="1">
                    <mxGeometry x="313.75" y="80" width="140" height="30" as="geometry"/>
                </mxCell>
                <mxCell id="42" value="VO: foo&amp;nbsp; 的Ao" style="whiteSpace=wrap;html=1;" parent="1" vertex="1">
                    <mxGeometry x="300" y="120" width="160" height="40" as="geometry"/>
                </mxCell>
                <mxCell id="43" value="函数体" style="whiteSpace=wrap;html=1;" parent="1" vertex="1">
                    <mxGeometry x="300" y="170" width="160" height="50" as="geometry"/>
                </mxCell>
                <mxCell id="44" value="" style="whiteSpace=wrap;html=1;" parent="1" vertex="1">
                    <mxGeometry x="530" y="40" width="120" height="60" as="geometry"/>
                </mxCell>
                <mxCell id="45" value="foo 的Ao对象" style="text;html=1;align=center;verticalAlign=middle;resizable=0;points=[];autosize=1;strokeColor=none;fillColor=none;" parent="1" vertex="1">
                    <mxGeometry x="545" y="5" width="90" height="30" as="geometry"/>
                </mxCell>
                <mxCell id="46" value="" style="edgeStyle=none;orthogonalLoop=1;jettySize=auto;html=1;entryX=0;entryY=0.5;entryDx=0;entryDy=0;" parent="1" source="42" target="44" edge="1">
                    <mxGeometry width="100" relative="1" as="geometry">
                        <mxPoint x="480" y="140" as="sourcePoint"/>
                        <mxPoint x="580" y="140" as="targetPoint"/>
                        <Array as="points"/>
                    </mxGeometry>
                </mxCell>
                <mxCell id="47" value="函数调用完 就会弹出栈，在内存里开辟的空间也会销毁" style="ellipse;shape=cloud;whiteSpace=wrap;html=1;" parent="1" vertex="1">
                    <mxGeometry x="660" y="380" width="390" height="220" as="geometry"/>
                </mxCell>
            </root>
        </mxGraphModel>
    </diagram>
</mxfile>